ply
format ascii 1.0
element vertex 439
property float x
property float y
property float z
property uchar red
property uchar green
property uchar blue
end_header
-1.573851 0.833874 4.265702 135 159 206
-1.573942 0.546219 4.280186 141 157 173
-1.564405 1.108526 4.254093 47 64 99
-1.568683 0.883901 4.273274 134 155 167
-1.562244 1.186302 4.259724 126 146 197
-1.559462 0.583812 4.272012 0 3 24
-1.556630 0.697146 4.268866 56 75 128
-1.556630 0.697146 4.268866 56 75 128
-1.552556 1.104945 4.262772 60 76 113
-1.552556 1.104945 4.262772 60 76 113
-1.554940 1.189793 4.269211 36 52 100
-1.552968 0.516601 4.273919 49 60 74
-1.542271 0.756753 4.267789 114 133 189
-1.540648 0.573753 4.267791 138 155 181
-1.540657 0.886790 4.269252 182 203 222
-1.538483 1.050807 4.266185 143 174 208
-1.536471 1.049698 4.263174 143 174 208
-1.536840 1.096777 4.268669 158 192 226
-1.532380 0.831133 4.270286 23 39 83
-1.528515 -1.864312 4.283436 16 24 39
-1.531100 0.163161 4.277565 105 122 174
-1.526841 0.897848 4.265662 62 87 113
-1.526841 0.897848 4.265662 62 87 113
-1.523427 0.975762 4.262509 131 169 204
-1.525592 0.845466 4.269255 114 130 160
-1.523240 1.197038 4.263779 74 85 114
-1.523276 0.736452 4.269648 61 82 136
-1.522532 0.717448 4.270477 68 89 143
-1.522527 1.019574 4.269225 52 89 125
-1.521065 1.330620 4.271419 56 80 134
-1.509934 -1.984560 4.275449 109 120 161
-1.517935 1.003413 4.271885 126 168 202
-1.519588 0.473111 4.282417 129 160 197
-1.524941 0.893685 4.296091 133 151 177
-1.524941 0.893685 4.296091 133 151 177
-1.513104 1.038396 4.272015 142 181 216
-1.508939 1.237494 4.269563 122 134 154
-1.508665 1.045070 4.272862 138 173 208
-1.503872 1.333059 4.268503 122 145 196
-1.503872 1.333059 4.268503 122 145 196
-1.504200 1.059848 4.274619 71 92 128
-1.503736 0.183327 4.287358 19 38 52
-1.500987 0.539962 4.280626 136 151 168
-1.499530 0.593864 4.284244 145 160 195
-1.486859 0.856615 4.280111 145 165 186
-1.487880 0.894750 4.285607 89 114 140
-1.480910 0.577654 4.281868 136 152 181
-1.482506 0.928675 4.298361 130 169 204
-1.458427 0.537101 4.298746 142 159 174
-1.455542 1.457263 4.285242 116 138 189
-1.451204 0.201953 4.292330 140 164 193
-1.449302 0.869737 4.285884 48 63 81
-1.450907 0.852169 4.291283 155 178 207
-1.444906 1.940540 4.271168 124 137 153
-1.444651 -1.892411 4.312969 120 135 177
-1.447212 -1.865030 4.320931 33 44 67
-1.442295 0.512140 4.295216 41 57 68
-1.430638 -2.018950 4.295044 35 48 88
-1.432625 1.229241 4.290352 130 147 166
-1.430961 1.266446 4.288045 52 69 113
-1.421928 0.861870 4.285051 59 78 96
-1.426547 0.878094 4.310120 120 140 161
-1.422622 1.566153 4.299014 8 22 29
-1.420357 1.192234 4.296393 137 158 191
-1.417076 -2.057711 4.319838 209 213 228
-1.412477 -2.029108 4.315664 109 120 154
-1.409648 1.400520 4.298775 190 205 232
-1.410541 0.884962 4.307045 60 84 113
-1.410541 0.884962 4.307045 60 84 113
-1.409271 0.506132 4.308223 56 77 100
-1.406714 0.842281 4.301836 108 128 169
-1.403520 1.229828 4.295633 134 152 168
-1.394204 1.571065 4.276345 136 155 180
-1.402524 1.189645 4.312679 116 137 177
-1.392708 0.495451 4.299016 163 191 217
-1.394287 1.458340 4.296015 196 213 243
-1.393093 0.579922 4.301851 151 171 203
-1.398507 1.555847 4.310977 31 48 77
-1.387912 0.537834 4.292572 164 182 197
-1.386006 0.853691 4.288303 34 57 85
-1.386820 0.522430 4.302315 141 161 177
-1.387660 0.509031 4.305499 60 84 109
-1.391134 1.482364 4.310188 91 104 151
-1.387876 1.503546 4.303443 161 177 209
-1.384865 1.469520 4.310742 207 221 251
-1.384865 1.469520 4.310742 207 221 251
-1.381855 1.321645 4.305463 74 95 142
-1.381181 1.578345 4.305235 142 161 190
-1.377882 0.180421 4.311568 10 26 52
-1.381913 1.525759 4.312428 74 100 148
-1.379822 1.563922 4.311316 17 35 55
-1.375917 0.694733 4.308789 49 65 113
-1.376768 1.353016 4.307471 188 205 240
-1.371696 0.603426 4.311601 84 102 148
-1.366302 -1.811059 4.333116 50 68 96
-1.368680 1.335039 4.314260 202 219 251
-1.347595 -1.254286 4.288168 34 47 84
-1.359013 0.746485 4.302203 70 84 137
-1.366285 1.549507 4.317378 166 189 216
-1.362298 0.819117 4.313754 89 110 159
-1.356642 0.627965 4.309348 141 160 206
-1.356642 0.627965 4.309348 141 160 206
-1.356050 0.699822 4.310215 159 180 226
-1.356645 0.172542 4.321347 182 205 236
-1.356386 1.187338 4.312361 93 113 142
-1.358536 -1.818236 4.352026 87 106 133
-1.356187 1.354821 4.319400 198 216 249
-1.349606 0.757611 4.312929 182 202 246
-1.351056 0.507228 4.321276 180 207 232
-1.350894 1.198085 4.315799 203 227 238
-1.351799 0.193170 4.329152 71 93 114
-1.346990 2.015028 4.301670 73 92 142
-1.343321 1.705247 4.300260 55 75 134
-1.343989 1.246469 4.307354 186 204 248
-1.346767 1.372346 4.314189 172 194 225
-1.346767 1.372346 4.314189 172 194 225
-1.343387 0.578194 4.318004 183 201 234
-1.341931 0.666085 4.313757 78 98 145
-1.344673 1.161883 4.322271 93 118 162
-1.338783 1.231927 4.312695 187 206 236
-1.340556 1.469331 4.317267 151 175 209
-1.313834 -1.785815 4.277021 84 103 128
-1.333647 0.622630 4.314943 142 162 208
-1.332955 0.779665 4.311561 83 106 152
-1.334853 -1.791534 4.343510 54 71 103
-1.339390 0.186629 4.341680 212 231 241
-1.332979 1.241943 4.313952 128 147 183
-1.331349 0.670290 4.315192 102 119 168
-1.332604 0.570543 4.321063 117 138 169
-1.329947 0.826072 4.316415 142 165 212
-1.333134 0.846593 4.327623 209 229 243
-1.328157 0.687036 4.316751 92 110 156
-1.329225 0.165082 4.329423 194 214 240
-1.325527 0.709982 4.319715 178 198 241
-1.326716 1.856216 4.313372 52 73 124
-1.328449 1.592786 4.322162 171 191 217
-1.324814 0.876255 4.321566 214 230 248
-1.324137 1.031248 4.320097 107 131 183
-1.324233 1.816083 4.316644 55 75 126
-1.323102 1.250931 4.320301 158 177 220
-1.321756 2.014291 4.313169 109 129 158
-1.319062 0.625465 4.319441 108 127 163
-1.318391 0.723011 4.318703 108 126 165
-1.316700 0.697975 4.314440 125 142 178
-1.318014 0.921559 4.321578 123 151 190
-1.319932 1.509006 4.323600 87 109 141
-1.318305 1.833914 4.315476 97 115 157
-1.319697 1.438221 4.326283 74 97 139
-1.314094 2.122228 4.305016 200 220 234
-1.318075 -1.349979 4.353745 39 59 109
-1.320834 1.197716 4.336752 200 217 219
-1.313868 0.991091 4.319775 125 147 188
-1.313446 0.844324 4.321585 183 200 206
-1.312627 0.546939 4.325182 214 232 243
-1.311451 0.939647 4.317898 112 139 175
-1.312014 1.449711 4.323061 204 224 251
-1.310699 1.242792 4.323770 92 109 141
-1.309916 0.662889 4.328270 201 218 238
-1.310296 1.600474 4.326190 204 222 242
-1.307081 1.019547 4.325523 185 208 230
-1.305303 0.289291 4.328271 200 220 239
-1.305838 1.311752 4.325416 187 210 227
-1.311067 -1.575727 4.379898 4 11 36
-1.302495 -1.505153 4.373192 103 123 148
-1.296863 -1.360710 4.357790 142 163 184
-1.291536 -1.603550 4.384977 69 76 102
-1.239241 -1.844799 4.396801 15 25 46
-1.221637 -1.575741 4.413674 88 99 115
-1.198902 -1.429819 4.417323 192 211 224
-1.186316 -1.821348 4.381554 8 20 50
-1.167247 1.440097 4.398124 62 75 77
-1.157381 -1.572178 4.411496 1 9 23
-1.162953 -1.077236 4.427763 11 23 22
-1.163491 -1.098207 4.431149 25 25 27
-1.152645 -1.584943 4.405501 10 13 27
-1.140893 -2.112925 4.419688 77 89 123
-1.137394 -1.562595 4.427631 92 105 121
-1.129396 -1.843622 4.426297 87 105 141
-1.124505 -1.985802 4.419700 76 90 123
-1.138762 1.334630 4.429579 107 123 125
-1.123887 -2.060312 4.420935 86 96 131
-1.125567 -1.815150 4.425701 12 24 40
-1.139866 1.277022 4.438412 109 132 136
-1.103509 1.631605 4.427979 67 86 83
-1.085430 -1.848173 4.445129 34 44 60
-1.085430 -1.848173 4.445129 34 44 60
-1.095566 2.095768 4.446508 111 120 130
-1.081152 1.303313 4.443755 111 133 137
-1.064100 -1.700185 4.446820 12 31 60
-1.064628 -1.549251 4.451007 95 112 131
-1.074346 2.036995 4.448302 49 65 74
-1.057395 1.579189 4.451594 14 29 33
-1.046620 -1.606680 4.462695 43 54 71
-1.053962 2.204455 4.447061 192 200 205
-1.043497 -1.546064 4.459235 109 130 148
-1.049221 1.621108 4.451014 105 121 120
-1.051151 2.112422 4.456197 176 189 204
-1.045305 -1.012388 4.481435 40 55 60
-1.044765 2.135185 4.442196 54 56 59
-1.023796 -2.201099 4.434626 89 96 115
-1.027033 -1.754943 4.447751 89 116 151
-1.027033 -1.754943 4.447751 89 116 151
-1.031621 1.410384 4.463432 55 74 77
-1.030087 1.340301 4.459159 36 52 55
-1.018372 -2.100145 4.469583 67 81 121
-0.996584 -1.808872 4.444743 72 85 119
-0.986938 -2.208049 4.452095 98 103 118
-0.990882 -1.543891 4.458712 77 94 114
-0.980128 -1.813241 4.477445 6 20 47
-0.977986 -1.794457 4.475302 96 119 156
-0.978562 -1.604721 4.485522 96 115 139
-0.961618 -2.184278 4.471229 128 138 157
-0.962196 -1.532636 4.484968 26 38 53
-0.962948 -1.582265 4.494459 5 10 24
-0.955832 -2.198961 4.484233 97 102 119
-0.947974 -1.521165 4.476645 107 125 142
-0.941617 -2.186116 4.479856 111 117 144
-0.945127 -1.597721 4.492055 83 100 119
-0.940463 -1.715644 4.486632 28 56 90
-0.932566 -2.195040 4.481974 63 71 92
-0.925394 -1.628047 4.489531 29 48 75
-0.916443 -2.187131 4.493294 62 68 97
-0.903494 -2.183709 4.484663 50 55 83
-0.900208 -1.790500 4.481383 14 31 63
-0.900571 -1.573330 4.498179 125 142 158
-0.856616 -1.518526 4.518233 3 14 31
-0.852777 -2.180749 4.513189 54 61 91
-0.856045 1.581185 4.496610 24 39 40
-0.848625 -1.554017 4.528404 21 29 48
-0.843222 -1.571281 4.533718 85 103 123
-0.835941 -1.769146 4.511504 93 122 161
-0.832140 -2.103963 4.533826 14 18 20
-0.832140 -2.103963 4.533826 14 18 20
-0.838559 1.472578 4.512382 111 134 140
-0.821130 -2.108025 4.507256 21 25 41
-0.816184 -1.530141 4.520414 92 112 130
-0.816184 -1.530141 4.520414 92 112 130
-0.818912 1.356720 4.511832 115 139 145
-0.800040 -2.183367 4.527129 66 71 94
-0.805724 1.583146 4.517082 16 28 36
-0.804918 1.420451 4.527357 35 45 42
-0.805912 1.522254 4.533061 110 135 141
-0.800241 1.669679 4.516790 7 25 32
-0.792886 1.317813 4.502302 44 61 66
-0.783086 -1.503503 4.530741 124 144 161
-0.752492 -1.510777 4.522209 94 115 131
-0.765169 1.355954 4.545164 117 142 149
-0.765169 1.355954 4.545164 117 142 149
-0.739265 -2.181109 4.548657 115 123 135
-0.745617 1.566442 4.546788 80 96 104
-0.730982 -1.536131 4.541146 25 28 49
-0.727450 -2.173434 4.552184 201 209 218
-0.717287 -1.550699 4.554663 64 78 103
-0.706565 -2.180717 4.550357 194 197 204
-0.704292 -1.494815 4.548709 22 41 57
-0.696755 -1.539884 4.555740 0 8 27
-0.691735 -2.137913 4.565167 205 210 231
-0.689405 1.344950 4.553264 123 145 152
-0.680462 1.303040 4.566508 13 29 33
-0.662511 -2.210687 4.571517 6 6 10
-0.662511 -2.210687 4.571517 6 6 10
-0.674142 1.391899 4.562941 11 20 27
-0.656067 -2.185464 4.573247 199 205 216
-0.665016 1.241873 4.563151 123 146 154
-0.655413 1.255389 4.570001 116 140 148
-0.631060 -1.678382 4.593720 31 54 91
-0.606913 -1.555349 4.602643 57 80 116
-0.605057 1.396572 4.584213 121 139 147
-0.591157 -2.178671 4.601885 194 201 218
-0.586672 -2.131427 4.579881 58 68 114
-0.580376 -1.520450 4.595498 12 15 27
-0.582656 1.333261 4.575338 122 145 152
-0.563322 -1.689259 4.588661 20 45 81
-0.559609 1.375733 4.598564 71 91 99
-0.559665 1.302940 4.601694 57 76 84
-0.544505 -1.534992 4.610870 102 115 142
-0.492141 -2.124548 4.621462 104 119 156
-0.475592 -1.775559 4.619816 80 95 132
-0.468660 -1.534071 4.642470 16 24 36
-0.460146 -1.493723 4.634552 6 9 22
-0.437503 -2.113166 4.637991 80 84 118
-0.436805 -1.462826 4.645357 65 81 97
-0.436805 -1.462826 4.645357 65 81 97
-0.419428 -1.813487 4.637141 47 60 90
-0.412583 -1.510170 4.654197 0 3 13
-0.396949 -1.481947 4.653577 8 14 25
-0.389047 -1.520104 4.658929 123 141 163
-0.385034 -1.707269 4.641767 95 120 161
-0.399472 1.291215 4.667211 81 100 109
-0.399472 1.291215 4.667211 81 100 109
-0.381255 -1.699290 4.654240 74 107 148
-0.378938 -2.128321 4.673597 124 134 175
-0.370615 -1.533653 4.659724 84 105 137
-0.365600 -1.542071 4.653930 71 94 127
-0.360193 -1.532108 4.665893 10 24 45
-0.355753 -1.571676 4.666775 72 103 140
-0.337294 -1.558005 4.670537 19 30 48
-0.328357 -1.498949 4.674168 31 37 54
-0.325198 -1.649051 4.649878 95 129 165
-0.323123 0.109291 4.644353 149 159 161
-0.315617 -2.117311 4.673031 127 137 174
-0.306689 0.118309 4.654678 6 5 5
-0.306689 0.118309 4.654678 6 5 5
-0.299049 -2.124056 4.688406 76 89 133
-0.297416 -1.617149 4.678649 17 26 31
-0.293598 -2.091571 4.672327 189 197 208
-0.291369 -1.818984 4.678203 41 56 82
-0.290149 -1.738740 4.677668 88 103 138
-0.288373 -2.143819 4.689054 95 110 156
-0.288373 -2.143819 4.689054 95 110 156
-0.294055 0.144209 4.653123 136 163 171
-0.294055 0.144209 4.653123 136 163 171
-0.288010 -1.658905 4.675001 113 143 177
-0.292727 0.091287 4.658239 138 152 159
-0.292727 0.091287 4.658239 138 152 159
-0.285667 -2.088245 4.698652 79 84 120
-0.281248 -2.047088 4.685900 158 170 195
-0.283152 0.101009 4.663537 11 13 13
-0.283152 0.101009 4.663537 11 13 13
-0.273794 -2.065787 4.699553 89 99 133
-0.271957 -2.096669 4.694482 184 190 221
-0.271205 -1.779891 4.680224 105 121 150
-0.271015 -1.759828 4.682574 61 78 112
-0.269175 -1.798931 4.686708 51 66 96
-0.002631 -0.612177 1.478783 89 97 118
-0.267861 -2.077117 4.701188 71 80 120
-0.271007 0.176396 4.668147 5 4 7
-0.271007 0.176396 4.668147 5 4 7
-0.262904 -1.693271 4.674925 145 166 194
-0.258203 -1.929771 4.688552 83 90 110
-0.257981 -1.665312 4.688178 19 26 26
-0.249980 -1.500143 4.703458 126 140 157
-0.244917 -1.945362 4.693491 11 15 18
-0.250888 0.093372 4.678322 155 173 180
-0.250888 0.093372 4.678322 155 173 180
-0.241153 -1.715134 4.704290 16 19 23
-0.241792 0.116610 4.680609 9 15 14
-0.241792 0.116610 4.680609 9 15 14
-0.232336 -1.497306 4.706628 39 52 71
-0.228948 -1.728642 4.687195 17 22 23
-0.225948 -1.468793 4.714954 107 116 129
-0.219713 -1.969726 4.684391 23 28 28
-0.226668 0.155835 4.683962 136 161 173
-0.219432 -2.114514 4.712966 74 84 130
-0.219270 -1.885930 4.702609 60 72 98
-0.213621 -1.476542 4.711785 0 6 18
-0.207624 -2.034318 4.710289 188 199 230
-0.211837 0.079546 4.698793 134 161 171
-0.202981 -2.090541 4.718710 205 208 222
-0.198107 -1.955556 4.706640 16 22 34
-0.198303 -1.465588 4.715018 14 22 36
-0.192126 -2.035372 4.704717 73 84 119
-0.183374 -2.103408 4.716719 49 61 104
-0.183361 -2.103996 4.716412 48 61 107
-0.179324 0.178842 4.700310 6 5 0
-0.172421 0.034964 4.710167 2 6 7
-0.172421 0.034964 4.710167 2 6 7
-0.155660 -2.017740 4.719997 177 189 211
-0.156108 -2.102561 4.742422 57 69 114
-0.159207 0.159085 4.716619 140 155 163
-0.149607 0.054654 4.721757 122 150 162
-0.123771 -1.954681 4.738890 162 177 191
-0.130056 0.141955 4.716765 127 159 168
-0.118522 -2.077443 4.742023 172 179 197
-0.117306 -1.687256 4.726130 76 90 133
-0.104971 -1.670968 4.740652 15 28 68
-0.089456 -1.449953 4.761291 13 19 34
-0.084287 -2.047515 4.752670 80 90 131
-0.073272 -2.028165 4.747756 121 131 171
-0.079556 0.136185 4.746545 10 8 6
-0.079556 0.136185 4.746545 10 8 6
-0.052690 -2.064611 4.755863 198 203 215
-0.053370 -1.952359 4.765347 115 124 147
-0.049592 -1.478183 4.768105 73 86 111
-0.046608 -1.614491 4.757958 84 108 154
-0.050788 0.116476 4.761327 132 145 144
-0.046576 0.127273 4.764936 47 53 53
-0.035069 -2.026685 4.757243 76 87 136
-0.035488 -1.607698 4.772019 75 96 145
-0.031817 -2.080600 4.754917 52 60 97
-0.026728 -1.941851 4.770991 86 98 135
-0.034819 0.191665 4.766367 3 7 9
-0.034819 0.191665 4.766367 3 7 9
-0.024871 -1.451764 4.785173 13 18 34
-0.030104 0.147034 4.761555 9 8 6
-0.028304 0.105652 4.774801 6 7 8
-0.015736 -2.008815 4.764358 180 189 224
-0.005572 -1.616434 4.761390 37 54 99
-0.012685 0.122113 4.781429 160 174 181
-0.012685 0.122113 4.781429 160 174 181
-0.012319 0.152493 4.778740 2 5 9
-0.012319 0.152493 4.778740 2 5 9
-0.002659 -1.962043 4.779513 16 21 28
0.004158 -2.091621 4.777819 145 154 198
0.016715 -1.936671 4.772539 212 217 237
0.020339 -1.953506 4.774062 10 12 16
0.027020 -1.636617 4.772133 18 35 81
0.037505 -1.644502 4.763950 84 102 147
0.052748 -2.076923 4.819239 128 131 152
0.053937 -2.079735 4.789701 207 216 242
0.060438 -2.031922 4.777555 194 193 206
0.060438 -2.031922 4.777555 194 193 206
0.061724 -1.990465 4.788992 90 99 132
0.063941 -2.046057 4.786764 209 209 222
0.069541 -1.413581 4.815540 3 9 27
0.079666 -1.926013 4.795884 175 182 211
0.087235 -1.960838 4.786752 122 132 162
0.089560 -1.417911 4.789744 15 22 38
0.103051 -1.991121 4.788692 79 94 133
0.117880 -2.226070 4.793224 215 221 233
0.118054 -2.031562 4.806713 199 206 220
0.119081 -1.458210 4.831889 64 78 110
0.120148 -1.440968 4.746091 39 54 92
0.122288 -1.495126 4.829659 13 24 39
0.123570 -1.467027 4.834069 40 57 93
0.128010 -2.216411 4.807129 77 88 116
0.128686 -1.903857 4.798844 82 97 131
0.142906 -1.732146 4.810430 125 141 178
0.144367 -1.965560 4.817082 14 16 18
0.151450 -1.418259 4.827890 14 21 37
0.158170 -1.919165 4.824343 183 194 210
0.162732 -1.891836 4.819919 146 162 196
0.172944 -1.979835 4.819807 93 101 120
0.174093 -1.470286 4.825269 13 25 45
0.176438 -1.427485 4.832047 21 27 44
0.176438 -1.427485 4.832047 21 27 44
0.250958 -1.444528 4.888356 2 6 24
0.277976 -1.992570 4.859710 78 89 122
0.283086 -2.154410 4.839174 61 77 124
0.283966 -1.445217 4.878099 103 117 137
0.295123 -1.456296 4.872891 7 18 44
0.309791 -1.442728 4.884970 89 103 124
0.315517 -1.988796 4.880779 67 80 115
0.314103 -1.387128 4.887944 3 11 20
0.324282 -1.991749 4.865970 193 199 225
0.324282 -1.991749 4.865970 193 199 225
0.351095 -1.366986 4.899749 83 93 106
0.391372 -1.493271 4.884325 89 112 141
0.409888 -1.490704 4.899332 19 31 50
